<svg id="Layer_1" data-name="Layer 1" xmlns="http://www.w3.org/2000/svg" viewBox="0 0 223 45.65">
  <defs>
    <style>
      .cls-1 {
        fill: #fff;
      }
    </style>
  </defs>
  <title>valtech-logo</title>
  <g>
    <path class="cls-1" d="M38.17,56H29L17,22.86h9.77l6.89,24.45h.13l7.07-24.45h9.33Z" transform="translate(-17 -11.26)"/>
    <path class="cls-1" d="M79.26,49.55c0,3.93.88,4.8,1.95,5.18V56H71.74a15.09,15.09,0,0,1-.81-3.93,13.56,13.56,0,0,1-10.77,4.8c-5,0-10.15-2.81-10.15-9.66,0-6.49,4.14-9.8,9.71-10.61l7.89-1.18c1.38-.19,3.07-.75,3.07-2.62,0-3.68-3.51-3.86-5.76-3.86-4.38,0-5.14,2.67-5.39,4.61H51.08C52.08,23.42,59.16,22,66,22c4.7,0,13.28,1.43,13.28,9.61Zm-8.58-9.66c-.87.68-2.32,1.24-6,1.8-3.25.57-6,1.38-6,5a3.82,3.82,0,0,0,4.07,4c3.89,0,7.83-2.5,7.83-6.55Z" transform="translate(-17 -11.26)"/>
    <path class="cls-1" d="M93.3,56H84.53V11.26H93.3Z" transform="translate(-17 -11.26)"/>
    <path class="cls-1" d="M110,22.86h5.45V29.1H110v18c0,1.94.06,2.68,3.63,2.68.56,0,1.19-.06,1.82-.12v6.6c-1.38.07-2.76.14-4.14.14h-1.12c-7.58,0-9-2.88-9-7.18V29.1H96.68V22.86h4.51v-9H110Z" transform="translate(-17 -11.26)"/>
    <path class="cls-1" d="M149.61,46.31c-2.32,8-9,10.6-14.66,10.6-9.39,0-16.6-4.49-16.6-18.14,0-4,1.38-16.78,16-16.78C140.9,22,150,25.11,150,40.26v1.56H127.12c.25,2.49.75,8.11,7.83,8.11,2.45,0,5-1.25,5.64-3.62ZM141,36.15c-.5-5.37-3.94-7-6.76-7-4.13,0-6.33,2.62-6.83,7Z" transform="translate(-17 -11.26)"/>
    <path class="cls-1" d="M182.94,43.94c-.32,3.43-3,13-15.22,13-12.54,0-15.41-9.54-15.41-16.52,0-10.73,4.69-18.4,16-18.4,5.26,0,13.9,2.37,14.72,12.72h-8.89c-.38-2.12-1.63-5.36-5.4-5.36h-.43c-5.52,0-7,5.49-7,9.6,0,3.62.13,10.79,6.77,10.79,4.45,0,5.95-4.24,5.95-5.8Z" transform="translate(-17 -11.26)"/>
    <path class="cls-1" d="M217,56h-8.77V35.9c0-2.44-.12-6.55-5.7-6.55-3.88,0-6.89,2.62-6.89,7.67V56h-8.77V11.26h8.77v15.9h.13c1.13-2.74,4.88-5.17,9.64-5.17C211.94,22,217,25.8,217,33.09Z" transform="translate(-17 -11.26)"/>
    <rect class="cls-1" x="205.46" y="38.54" width="17.54" height="6.24"/>
  </g>
</svg>
